<svg xmlns="http://www.w3.org/2000/svg" width="42" height="42" viewBox="0 0 42 42">
    <g fill="none" fill-rule="evenodd">
        <path fill="#FBB040" d="M33.042 13.578v3.888h1.583v-3.888h3.654v-1.513h-3.654V8.178h-1.583v3.887h-3.654v1.513h3.065z"/>
        <path fill="#88ADF0" d="M35.56 26.388l-8.502-2.434a1.74 1.74 0 0 1-.213.567 1.73 1.73 0 0 1-1.225.778l-.038.006-.036.004-.486.042-.066.006h-.417l-.067-.006-.535-.048-.094-.013c-.25.947-.986 1.708-1.987 1.996l-2.164.619c-.58.165-1.172.28-1.767.375l6.22 1.78a4.74 4.74 0 0 0 2.673 0l7.466-2.134v1.9c-.154.086-.265.235-.265.406v.512c0 .192.11.363.287.427l-.463 1.047c-.067.15.022.298.198.32l.485.043h.289l.486-.044c.154-.02.243-.17.198-.32l-.464-1.046c.177-.086.288-.235.288-.427v-.512c0-.171-.11-.32-.265-.406v-2.114l.486-.15c.574-.19.574-1.004-.022-1.174m-8.285 5.06l5.125-1.473v3.31c0 .599-.398 1.11-.994 1.281l-2.164.62a13.236 13.236 0 0 1-7.29 0l-2.166-.62c-.595-.171-.993-.682-.993-1.28v-3.269l4.948 1.432c.574.15 1.17.234 1.768.234.596 0 1.192-.064 1.766-.234"/>
        <path fill="#5075DD" d="M15.584 22.96a7.055 7.055 0 0 1-1.768-.234L8.87 21.295v3.266c0 .599.397 1.111.994 1.283l2.164.618c.597.17 1.201.3 1.81.385.395.055.791.063 1.188.082.216.011.432.045.648.045.147 0 .292-.024.44-.03.428-.008.856-.033 1.282-.089.343-.045.679-.128 1.017-.2.303-.065.607-.108.905-.193l.721-.207 1.445-.411c.22-.065.401-.186.557-.33a1.26 1.26 0 0 0 .234-.283c.121-.2.201-.422.201-.67V21.252l-5.124 1.474a6.207 6.207 0 0 1-1.767.235m10.501-4.717a.614.614 0 0 1-.428.596l-.34.104-.145.045v2.113c.038.022.061.057.095.085a.461.461 0 0 1 .132.203c.013.04.037.076.037.118v.512c0 .048-.025.086-.038.128-.014.042-.014.09-.039.127-.008.01-.023.015-.03.025a.552.552 0 0 1-.18.149l.207.463.258.582c.01.04-.008.073-.014.11-.005.035.004.07-.014.1-.017.028-.056.035-.084.055-.03.018-.048.051-.087.055l-.486.044h-.287l-.235-.021-.009-.001-.241-.022c-.046-.004-.065-.037-.097-.055-.096-.059-.153-.152-.103-.265l.377-.852.086-.193a.429.429 0 0 1-.209-.166.475.475 0 0 1-.078-.263v-.512c0-.171.111-.32.265-.406v-1.9l-7.467 2.135a4.763 4.763 0 0 1-.714.148 4.606 4.606 0 0 1-1.959-.148L5.534 18.84c-.264-.076-.39-.283-.421-.503-.004-.029-.027-.055-.027-.085a.6.6 0 0 1 .448-.587l8.703-2.499a4.873 4.873 0 0 1 1.346-.191c.401 0 .798.058 1.184.16.048.013.097.018.144.031l1.942.557 6.783 1.942c.15.042.261.125.336.228a.604.604 0 0 1 .114.351"/>
    </g>
</svg>
