<svg xmlns="http://www.w3.org/2000/svg" width="42" height="42" viewBox="0 0 42 42">
    <g fill="none" fill-rule="evenodd">
        <path fill="#5075DD" d="M15 19.217c1.683 0 3.047-1.392 3.047-3.108 0-1.717-1.364-3.11-3.047-3.11s-3.046 1.393-3.046 3.11c0 1.716 1.363 3.108 3.046 3.108M22.612 26.962c-.01-.702-.17-1.363-.413-1.996-.495-1.278-1.419-2.376-2.644-3.17A8.372 8.372 0 0 0 15 20.466a8.345 8.345 0 0 0-4.619 1.377c-1.812 1.2-3 3.066-3 5.187 0 2.127 1.18 2 3 1.531 1.281-.328 2.88-.823 4.619-.823 1.858 0 3.56.568 4.882.89 1.671.409 2.736.425 2.736-1.598 0-.024-.007-.045-.007-.068"/>
        <path fill="#88ADF0" d="M30.119 27.842a8.345 8.345 0 0 0-4.619-1.377c-.442 0-.87.05-1.291.113.007.151.039.297.039.451 0 .492 0 1.99-1.15 2.874-.547.42-1.159.572-1.816.572-.786 0-1.638-.22-2.517-.452-.546.905-.883 1.916-.883 3.006 0 3.626 3.41.708 7.618.708 1.739 0 3.338.495 4.619.824 1.82.468 3 .595 3-1.532 0-2.12-1.188-3.987-3-5.187M23.86 24.722a2.963 2.963 0 0 0 2.84.243 3.11 3.11 0 0 0 1.847-2.856c0-1.717-1.363-3.108-3.046-3.108-1.683 0-3.047 1.39-3.047 3.108 0 .036.008.07.01.105a7.812 7.812 0 0 1 1.396 2.508"/>
        <path fill="#FBB040" d="M35.793 10.9V7.01h-1.586V10.9h-3.652v1.512h3.652V16.3h1.586v-3.888h3.654V10.9z"/>
    </g>
</svg>
