<svg xmlns="http://www.w3.org/2000/svg" width="32" height="32" viewBox="0 0 32 32">
    <path fill="#898B8D" fill-rule="evenodd" d="M18.766 16.659a5.225 5.225 0 0 1 5.218 5.219c0 .051-.005.102-.008.153-.082 2.807-2.385 5.067-5.21 5.067a5.215 5.215 0 0 1-4.375-2.383 5.19 5.19 0 0 1-.844-2.837c0-2.877 2.34-5.22 5.219-5.22zm0 .691a4.533 4.533 0 0 0-4.528 4.528c0 .985.32 1.896.857 2.64a4.521 4.521 0 0 0 3.67 1.888 4.531 4.531 0 0 0 4.51-4.178c.01-.116.018-.232.018-.35a4.532 4.532 0 0 0-4.527-4.528zM16.45 7.705c.907 0 1.74.6 1.996 1.516l.373 1.331 2.36-.66c.993-.278 2.022.3 2.3 1.294l2.349 8.389a1.867 1.867 0 0 1-1.292 2.3 5.771 5.771 0 1 0-11.543.003c0 1.097.312 2.119.843 2.992l-3.017.845a1.867 1.867 0 0 1-2.3-1.295l-2.35-8.388a1.866 1.866 0 0 1 1.295-2.3l2.36-.662-.373-1.331a2.075 2.075 0 0 1 1.438-2.557l5-1.4c.188-.052.376-.077.56-.077zm4.483 12l.087.009c.204.033.37.16.448.341.04.093.052.191.04.303a.582.582 0 0 1-.346.47c-.45.192-1.243.832-2.48 2.685-.069.105-.135.198-.207.31a.588.588 0 0 1-.494.27l-.066-.004a.567.567 0 0 1-.41-.246.59.59 0 0 1-.067-.11c-.301-.722-.698-1.25-1.178-1.574a.585.585 0 0 1-.161-.816.582.582 0 0 1 .375-.249.576.576 0 0 1 .441.09c.43.288.81.683 1.128 1.176 1-1.42 1.87-2.275 2.654-2.612a.559.559 0 0 1 .323-.034zM16.451 9.572a.212.212 0 0 0-.057.008l-5 1.4a.208.208 0 0 0-.144.256l.373 1.331 5.4-1.512-.373-1.33a.208.208 0 0 0-.2-.153z"/>
</svg>
