<svg xmlns="http://www.w3.org/2000/svg" width="36" height="36" viewBox="0 0 36 36">
    <path fill="#304684" fill-rule="nonzero" d="M25.15 19.314v3.741c0 .676-.412 1.255-1.031 1.448l-2.246.7a12.63 12.63 0 0 1-7.563 0l-2.245-.7c-.62-.193-1.032-.772-1.032-1.448v-3.693l5.134 1.617a6.74 6.74 0 0 0 1.833.266 5.92 5.92 0 0 0 1.833-.266l5.317-1.665zm-8.548-6.88c.917-.29 1.88-.29 2.773 0l9.052 2.825c.619.193.619 1.11.023 1.327l-.504.17v2.389c.16.096.275.265.275.458v.58a.53.53 0 0 1-.298.483l.481 1.182c.046.17-.046.338-.206.362l-.504.049h-.298l-.504-.049c-.184-.024-.275-.193-.207-.362l.482-1.182c-.184-.073-.298-.266-.298-.483v-.58c0-.193.114-.362.275-.458v-2.148l-7.746 2.413c-.917.29-1.88.29-2.773 0l-9.052-2.824c-.619-.193-.619-1.134 0-1.327z"/>
</svg>
