<svg xmlns="http://www.w3.org/2000/svg" width="36" height="36" viewBox="0 0 36 36">
    <g fill="none" fill-rule="evenodd">
        <path fill="#5075DD" d="M27.946 16.755l.505-.17c.596-.216.596-1.133-.024-1.326l-9.051-2.824a4.531 4.531 0 0 0-2.774 0l-9.03 2.824c-.617.193-.617 1.135 0 1.327l9.054 2.824c.893.29 1.856.29 2.772 0l7.746-2.413.802-.242z"/>
        <path fill="#5075DD" d="M18 21.245a6.75 6.75 0 0 1-1.834-.266l-5.133-1.617v3.694c0 .675.412 1.254 1.031 1.448l2.247.7a12.65 12.65 0 0 0 7.562 0l2.245-.7c.62-.194 1.031-.773 1.031-1.448v-3.742l-5.316 1.665a5.896 5.896 0 0 1-1.833.266"/>
        <path fill="#D39537" d="M27.144 16.997v2.147a.546.546 0 0 0-.275.459v.58c0 .217.115.41.297.483l-.48 1.183c-.07.169.022.337.206.362l.504.048h.298l.504-.048c.16-.025.253-.193.207-.362l-.482-1.183a.53.53 0 0 0 .298-.483v-.58a.544.544 0 0 0-.275-.46v-2.388l-.802.242z"/>
        <path fill="#FBB040" d="M27.144 19.144a.546.546 0 0 0-.275.46v.578c0 .218.115.411.297.483.252.094.505.094.757 0a.53.53 0 0 0 .298-.483v-.579a.546.546 0 0 0-.275-.459.945.945 0 0 0-.802 0"/>
    </g>
</svg>
