<svg xmlns="http://www.w3.org/2000/svg" width="36" height="36" viewBox="0 0 36 36">
    <g fill="#5075DD" fill-rule="evenodd">
        <path d="M23.819 12.134a1.35 1.35 0 0 0-1.746 2.059 6.295 6.295 0 0 1 2.226 4.806 6.308 6.308 0 0 1-6.299 6.3 6.309 6.309 0 0 1-6.3-6.3c0-1.852.81-3.604 2.227-4.805a1.351 1.351 0 0 0-1.748-2.06A8.99 8.99 0 0 0 9 19c0 4.963 4.037 9 9 9 4.961 0 8.998-4.037 8.998-9a8.99 8.99 0 0 0-3.18-6.865"/>
        <path d="M18 19a1.35 1.35 0 0 0 1.351-1.351V10.35a1.35 1.35 0 0 0-2.7 0v7.299A1.35 1.35 0 0 0 18 19"/>
    </g>
</svg>
