<svg xmlns="http://www.w3.org/2000/svg" width="36" height="36" viewBox="0 0 36 36">
    <path fill="#304684" fill-rule="evenodd" d="M21.916 12.29a1.347 1.347 0 0 1 1.902-.156A8.99 8.99 0 0 1 27 18.999c0 4.963-4.037 9-8.998 9-4.964 0-9-4.037-9-9a8.99 8.99 0 0 1 3.178-6.864 1.351 1.351 0 0 1 1.748 2.059 6.291 6.291 0 0 0-2.227 4.805 6.309 6.309 0 0 0 6.3 6.3 6.308 6.308 0 0 0 6.3-6.3 6.295 6.295 0 0 0-2.227-4.806 1.35 1.35 0 0 1-.157-1.903zM18 9a1.35 1.35 0 0 1 1.351 1.35v7.299a1.35 1.35 0 1 1-2.7 0V10.35c0-.746.604-1.35 1.35-1.35z"/>
</svg>
