<svg xmlns="http://www.w3.org/2000/svg" width="32" height="32" viewBox="0 0 32 32">
    <path fill="#898B8D" fill-rule="evenodd" d="M20.58 19.226a.581.581 0 0 0-.448-.342.559.559 0 0 0-.323.034c-.783.337-1.653 1.192-2.654 2.613a4.03 4.03 0 0 0-1.128-1.178.579.579 0 0 0-.441-.089.583.583 0 0 0-.375.25.586.586 0 0 0 .161.816c.48.322.877.851 1.178 1.572.018.041.041.077.066.111a.567.567 0 0 0 .476.25.59.59 0 0 0 .495-.269c.072-.113.138-.206.208-.31 1.236-1.853 2.028-2.493 2.48-2.686a.583.583 0 0 0 .344-.47.568.568 0 0 0-.038-.301v-.001m1.823 1.823a4.53 4.53 0 0 0-3.032-4.27 4.503 4.503 0 0 0-1.496-.258c-1.648 0-3.09.888-3.88 2.207a4.498 4.498 0 0 0 .21 4.96 4.522 4.522 0 0 0 3.67 1.888 4.53 4.53 0 0 0 4.51-4.178c.01-.116.018-.232.018-.35m.692 0c0 .052-.007.102-.008.153a5.222 5.222 0 0 1-5.212 5.067 5.214 5.214 0 0 1-4.374-2.383 5.169 5.169 0 0 1-.315-5.113 5.22 5.22 0 0 1 4.69-2.942c.768 0 1.495.17 2.152.47a5.223 5.223 0 0 1 3.067 4.749m.611-8.781l-.7-.796a.443.443 0 0 0 .1-.46l-.157-.454a.417.417 0 0 0-.134-.187.479.479 0 0 0-.207-.097L21.953 8.4l.349-.27c.408-.333.157-1.053-.382-1.035l-7.869.267a3.762 3.762 0 0 0-2.173.759l-6.305 4.688c-.432.322-.174 1.059.364 1.041l7.87-.267a3.767 3.767 0 0 0 2.174-.76l5.41-4.013.588 1.683a.45.45 0 0 0-.09.435l.16.454c.029.085.08.158.143.21.064.052.14.084.222.087l-.053 1.059c-.008.151.11.258.261.227l.408-.1.234-.082.382-.175c.118-.064.144-.221.061-.34m-11.144 6.525l-.936.032c-.538.018-1.02-.323-1.205-.852l-1.011-2.896 4.467-.138a5.61 5.61 0 0 0 1.509-.294 4.92 4.92 0 0 0 1.365-.71l3.71-2.762 1.025 2.932c.186.53.021 1.097-.41 1.418l-.547.405a5.737 5.737 0 0 0-2.654-.652 5.783 5.783 0 0 0-5.313 3.517"/>
</svg>
