<svg xmlns="http://www.w3.org/2000/svg" width="36" height="36" viewBox="0 0 36 36">
    <g fill="#5075DD" fill-rule="evenodd">
        <path d="M23.574 18.5A5.58 5.58 0 0 1 18 24.073a5.58 5.58 0 0 1-5.574-5.573A5.58 5.58 0 0 1 18 12.927a5.58 5.58 0 0 1 5.574 5.573m4.055-2.17l-2.157-.551a7.922 7.922 0 0 0-.265-.638l1.135-1.915a1.438 1.438 0 0 0-.22-1.75l-1.1-1.098a1.437 1.437 0 0 0-1.747-.22l-1.915 1.134a8.446 8.446 0 0 0-.64-.264l-.55-2.155a1.436 1.436 0 0 0-1.393-1.082h-1.554c-.657 0-1.23.445-1.392 1.082l-.552 2.155c-.216.08-.43.168-.638.264l-1.915-1.134a1.437 1.437 0 0 0-1.748.22l-1.1 1.099a1.438 1.438 0 0 0-.22 1.749l1.135 1.914a7.763 7.763 0 0 0-.265.639l-2.156.551a1.438 1.438 0 0 0-1.08 1.393v1.554c0 .657.444 1.23 1.08 1.392l2.156.552c.08.218.167.43.265.638l-1.135 1.915a1.438 1.438 0 0 0 .22 1.749l1.1 1.099a1.436 1.436 0 0 0 1.748.22l1.915-1.135c.208.097.422.186.638.265l.452 1.762a1.96 1.96 0 0 0 1.899 1.474h.74a1.96 1.96 0 0 0 1.9-1.474l.45-1.762c.218-.08.431-.168.64-.265l1.915 1.135a1.436 1.436 0 0 0 1.748-.22l1.1-1.1a1.437 1.437 0 0 0 .22-1.748l-1.136-1.915c.098-.208.185-.42.265-.638l2.157-.552a1.436 1.436 0 0 0 1.08-1.392v-1.554c0-.656-.444-1.23-1.08-1.393"/>
        <path d="M18 15.279a3.22 3.22 0 1 1 0 6.441 3.22 3.22 0 0 1 0-6.441"/>
    </g>
</svg>
