<svg xmlns="http://www.w3.org/2000/svg" width="212" height="50" viewBox="0 0 212 50">
    <g fill="#5075DD" fill-rule="evenodd">
        <path d="M21.641 38.534a1.51 1.51 0 0 0-1.895.132l-.025.025a1.428 1.428 0 0 0-.079.082l-.004-.003c-1.824 1.736-3.6 2.53-4.376 2.667-.137-.777.001-2.717 1.01-5.025l-.006-.003c.019-.033.035-.067.05-.102.006-.01.01-.02.015-.032a1.51 1.51 0 0 0-2.716-1.311l-.004-.002-.046.103-.017.038c-.673 1.516-1.122 3.09-1.285 4.541-.168 1.503-.1 3.483 1.185 4.382 1.907 1.336 5.575-.488 8.339-3.135l.06-.058.063-.06-.002-.003a1.51 1.51 0 0 0-.266-2.236M15.073 19.827l.175-.04.171-.034.154-.032.162-.03.168-.03.148-.024.176-.028.125-.018.09-.013a6.302 6.302 0 0 1 .248-.032l.17-.02c.045-.005.084-.01.123-.013l.079-.008.115-.012.312-.025.308-.02.303-.012.149-.004.154-.004.3-.002a41.7 41.7 0 0 1 .313.004c6.837-8.652 12.518-10.67 14.881-11.136 1.784-.351 3.333-.184 4.25.459.918.642 1.605 2.04 1.885 3.837.37 2.38.417 8.409-5.375 17.793l.019.047.045.12.063.17a15.804 15.804 0 0 1 .203.593l.042.133.052.17.04.134a16.05 16.05 0 0 1 .134.493l.035.138a19.725 19.725 0 0 1 .181.828 20.68 20.68 0 0 0 .088.498 16.579 16.579 0 0 1 .094.677c2.717-3.99 4.735-7.86 6.004-11.54 1.365-3.958 1.835-7.665 1.36-10.72-.412-2.642-1.526-4.718-3.137-5.846-1.61-1.128-3.943-1.464-6.567-.947-3.032.597-6.355 2.306-9.608 4.943-3.024 2.451-5.97 5.671-8.79 9.589l.007-.002.15-.034"/>
        <path d="M31.724 17.926c1.269.888 1.517 2.722.555 4.096a3.144 3.144 0 0 1-2.077 1.32c-.105.036-.105.036 0 0a2.674 2.674 0 0 1-1.962-.44 2.674 2.674 0 0 1-1.085-1.693l.001.048-.002-.054a3.145 3.145 0 0 1 .531-2.397c.963-1.375 2.771-1.769 4.04-.88m-.078 27.34v-.001l.036-.06v-.001l.01-.016.024-.048c.012-.024.024-.048.034-.074l.014-.027.015-.04c.06-.144.117-.288.172-.43l.067-.173c.037-.097.075-.194.11-.29l.072-.194.096-.263.07-.202c.03-.083.058-.166.086-.248l.068-.204a31.873 31.873 0 0 0 .274-.876 23.682 23.682 0 0 0 .29-1.07l.047-.19.051-.222.042-.184a17.253 17.253 0 0 0 .084-.4l.044-.23.03-.163.045-.256.022-.13c.02-.127.04-.253.057-.377l.015-.11c.012-.088.024-.177.034-.265.007-.05.011-.098.017-.148.009-.073.017-.147.024-.22l.015-.158.019-.205.012-.16.013-.197.009-.16.005-.116.001-.001.003-.073v-.001a20.823 20.823 0 0 0 .013-.687 14.994 14.994 0 0 0-.004-.336l-.004-.149a14.616 14.616 0 0 0-.007-.182l-.006-.144-.012-.182c-.002-.046-.005-.093-.009-.139l-.015-.186-.011-.129-.021-.2c-.005-.036-.008-.073-.012-.11l-.032-.252-.007-.053-.045-.3-.015-.088a13.922 13.922 0 0 0-.036-.207l-.02-.111-.036-.179-.025-.119-.036-.167-.028-.12a12.391 12.391 0 0 0-.038-.16l-.031-.122-.035-.134-.005-.02a20.373 20.373 0 0 0-.157-.541 10.118 10.118 0 0 0-.086-.265l-.037-.113-.052-.148-.039-.109-.056-.15-.038-.102-.062-.156-.036-.092a13.48 13.48 0 0 0-.074-.177l-.027-.067c-.035-.081-.07-.162-.106-.241l-.006-.015a16.04 16.04 0 0 0-.102-.222l-.036-.076-.074-.156-.045-.09-.07-.14-.047-.093-.068-.132-.051-.096-.068-.126a16.771 16.771 0 0 0-.367-.646 13.995 13.995 0 0 0-.126-.209l-.057-.093a17.6 17.6 0 0 0-.072-.114l-.056-.09a10.573 10.573 0 0 0-.043-.067 6.215 6.215 0 0 1-.18.028c-1.115.157-2.236.025-3.352-.225a1.49 1.49 0 0 1-.159-.037c-.063-.014-.126-.031-.19-.047a197.96 197.96 0 0 1-.003-.005l.024.033.018.024.074.1.046.062.07.096.023.031.027.038.005.006.063.087.018.025a13.513 13.513 0 0 1 .163.225l.092.13.018.025.034.047.007.01.055.078.054.079.023.032.036.051.056.082.015.023.04.059.027.04.03.044.02.03.035.052.012.017.045.068a34.514 34.514 0 0 1 .271.42l.046.074.06.098.045.073a8.784 8.784 0 0 1 .097.162l.006.01.06.103.013.023.028.048.06.106.009.015.027.05.054.096c.056.103.11.207.165.311l.026.052.06.119.033.065.057.118a20.148 20.148 0 0 1 .088.188l.03.067.056.124.025.058c.07.16.137.324.2.49l.007.016.053.144a6.507 6.507 0 0 1 .092.26 10.788 10.788 0 0 1 .112.348l.017.055.046.157v.001c.053.188.101.379.146.573l.011.05.034.16.013.063.031.159.012.066c.01.054.02.108.028.163l.01.058.027.176.002.018c.03.205.054.415.072.629l.004.04.014.183.004.065.01.179.004.071.007.182.001.065.004.194v.035c.001.227-.003.46-.014.697l-.002.03-.011.206-.005.071-.014.197-.007.082a13.525 13.525 0 0 1-.05.487l-.007.057c-.031.252-.069.51-.114.773 0 .007-.002.013-.003.02l-.04.227-.016.081-.043.216-.02.095-.045.216-.022.098a21.27 21.27 0 0 1-.051.221l-.021.086-.06.24a23.412 23.412 0 0 0-.273-.43l-.012-.018a22.26 22.26 0 0 0-.135-.205l-.016-.023a21.38 21.38 0 0 0-.468-.671l-.023-.032-.153-.21-.024-.031a25.848 25.848 0 0 0-.358-.47l-.016-.02a26.75 26.75 0 0 0-1.073-1.285l-.037-.041-.197-.219-.067-.073a30.52 30.52 0 0 0-.174-.188l-.086-.092a30.625 30.625 0 0 0-.165-.173l-.097-.1a39.16 39.16 0 0 0-.16-.166l-.107-.107a29.231 29.231 0 0 0-.161-.161l-.114-.113a33.173 33.173 0 0 0-.161-.157l-.122-.117a29.67 29.67 0 0 0-1.068-.976 36.76 36.76 0 0 0-.145-.126l-.176-.15-.148-.127-.183-.152-.151-.125-.19-.154-.154-.124-.197-.157-.156-.122-.207-.16-.155-.118-.223-.168-.15-.111c-.084-.063-.17-.125-.256-.188l-.125-.09a38.317 38.317 0 0 0-.792-.555l-.132-.088c-.088-.06-.176-.12-.263-.177l-.157-.103-.236-.154-.165-.105-.224-.142-.17-.105a31.91 31.91 0 0 0-.215-.133l-.171-.103a36.274 36.274 0 0 0-1.132-.652l-.203-.11a43.476 43.476 0 0 0-.37-.197l-.159-.083-.206-.105-.153-.078a26.11 26.11 0 0 0-.355-.175l-.22-.105-.13-.062-.248-.115-.098-.045c-.23-.104-.458-.204-.682-.299l-.082-.034-.251-.105-.107-.042-.221-.09c-.04-.014-.078-.03-.116-.044l-.207-.08-.12-.045-.198-.073-.12-.044-.194-.069-.118-.04a23.25 23.25 0 0 0-.495-.166l-.11-.036a22.83 22.83 0 0 0-.486-.15l-.094-.027a19.146 19.146 0 0 0-.49-.137l-.067-.018-.232-.06-.037-.01c-.32-.081-.626-.15-.918-.212 1.696-1.157 3.25-1.853 4.691-2.23l.006-.002c3.312-.867 6.035-.056 8.557.696h.003l.015.005.018.006.179.053.26.077a32.012 32.012 0 0 0 .508.147 30.744 30.744 0 0 0 .574.158l.089.024.019.005.04.01a21.265 21.265 0 0 0 .633.154c1.115.25 2.236.382 3.351.225a4.42 4.42 0 0 0 .289-.047 6.624 6.624 0 0 0 .57-.134 7.72 7.72 0 0 0 .322-.102 6.123 6.123 0 0 0 .566-.228l.1-.046a6.932 6.932 0 0 0 .343-.179l.098-.055c.041-.023.082-.049.123-.073l.097-.06.124-.08.096-.064.126-.089.093-.067c.044-.032.088-.066.132-.1l.087-.067.146-.12.072-.06c.073-.061.145-.125.218-.192 1.987-1.814 2.313-3.61 2.236-4.797a5.037 5.037 0 0 0-.333-1.491 5.41 5.41 0 0 0-.26-.577c-.441-.835-1.11-1.588-1.966-2.187a6.433 6.433 0 0 0-2.09-.974c-.065-.016-.129-.03-.193-.044a5.427 5.427 0 0 0-1.068-.131 5.186 5.186 0 0 0-1.187.114c-.047.01-.094.022-.14.034-.066.016-.131.032-.196.05a4.944 4.944 0 0 0-.443.154l-.004.001c-1.08.435-2.4 1.411-3.297 3.589-.614 1.492-.66 2.82-.416 3.989a36.23 36.23 0 0 0-1.484-.397l-.008-.002-.194-.046-.028-.006-.2-.045-.024-.006a22.225 22.225 0 0 0-.186-.04l-.041-.009a18.234 18.234 0 0 0-.174-.035l-.056-.011-.175-.034-.055-.01c-.06-.012-.121-.023-.182-.033l-.051-.01-.172-.028-.064-.011-.164-.025-.074-.012-.159-.022-.082-.011-.158-.02-.084-.01c-.052-.007-.105-.012-.158-.018l-.087-.01-.156-.014-.091-.009-.152-.012-.098-.008-.153-.01-.098-.005-.155-.008-.1-.004-.145-.004-.112-.003c-.048-.002-.096-.002-.144-.002l-.115-.002-.144.001-.118.001-.136.003-.128.004-.132.005-.134.006-.14.009-.129.008-.138.011-.096.008-.037.003-.127.013-.147.015-.124.015-.152.018-.124.018-.155.022-.121.02-.16.025-.115.021-.17.03c-.037.008-.075.017-.113.024l-.173.035-.12.027-.168.038-.121.03c-.057.014-.114.027-.17.042l-.114.03-.18.049-.11.031-.187.055-.112.035-.187.058-.109.037c-.064.02-.129.042-.194.065-.032.01-.064.023-.097.034l-.207.074-.1.038-.207.08-.092.036-.217.088-.007.003-.092.04-.213.09-.095.043c-.073.032-.147.065-.22.099l-.095.045-.223.105-.09.046c-.077.037-.154.075-.23.114l-.084.044c-.08.04-.16.082-.24.124l-.084.046-.24.132c-.033.017-.065.036-.097.054l-.232.133-.128.076c-.067.04-.135.079-.202.12l-.144.089c-.063.039-.127.077-.19.118l-.136.087c-.067.043-.134.085-.2.129l-.159.105-.18.121-.183.126c-.053.038-.106.073-.16.111l-.191.138-.154.11c-.075.055-.152.112-.228.17l-.12.088-.314.242-.035.027c-.587.457-1.185.961-1.795 1.515l-.008.008a1.554 1.554 0 0 0-.097.097l-.007.008a1.51 1.51 0 0 0 .009 2.02v.002c.037.04.076.078.116.113l.043.035c.027.022.054.044.082.064l.012.01c.025.018.052.034.078.05l.025.015c.04.024.081.046.124.065l.024.01c.034.016.068.03.103.042l.043.015c.03.01.059.018.089.026l.049.011a1.506 1.506 0 0 0 .224.033l.048.003h.137l.03-.003h.02c.054-.005 5.453-.367 12.732 4.73 7.278 5.096 8.785 10.294 8.797 10.337l.006.019.03.096.015.042a1.47 1.47 0 0 0 .054.124l.023.043.043.077a1.511 1.511 0 0 0 .273.33l.03.027c.028.025.058.048.089.071l.018.014.012.009.046.029c.026.016.051.033.078.048l.021.01.036.02c.03.014.058.029.088.042l.027.012.035.013c.025.01.051.018.077.027l.06.018.007.001a1.548 1.548 0 0 0 .075.019l.021.004.05.01a1.416 1.416 0 0 0 .15.017l.068.002h.081l.065-.004.085-.01c.021-.002.041-.005.062-.01l.033-.006.054-.011.06-.016h.001a1.43 1.43 0 0 0 .145-.05l.039-.016.028-.012a1.39 1.39 0 0 0 .071-.034c.02-.01.038-.021.057-.032.024-.014.048-.027.07-.042l.034-.023.02-.015c.022-.015.043-.03.064-.047l.02-.016.035-.03.053-.048.035-.037.02-.02v-.001c.015-.016.03-.031.044-.048a1.41 1.41 0 0 0 .051-.064v-.001l.039-.05v-.001l.043-.067"/>
        <path fill-rule="nonzero" d="M58.92 32.4c-.813 0-1.58-.12-2.3-.36a6.854 6.854 0 0 1-1.96-1.02 6.756 6.756 0 0 1-1.51-1.57 7.202 7.202 0 0 1-.97-2.04 8.323 8.323 0 0 1-.34-2.41c0-.853.117-1.663.35-2.43a7.796 7.796 0 0 1 .99-2.1 7.13 7.13 0 0 1 1.52-1.64 6.67 6.67 0 0 1 1.95-1.06 6.897 6.897 0 0 1 2.27-.37c.733 0 1.427.1 2.08.3a6.166 6.166 0 0 1 3.17 2.2c.393.52.69 1.107.89 1.76l-2.88.72c-.32-.707-.767-1.257-1.34-1.65a3.382 3.382 0 0 0-1.96-.59c-.56 0-1.083.12-1.57.36-.487.24-.907.577-1.26 1.01-.353.433-.63.943-.83 1.53-.2.587-.3 1.227-.3 1.92 0 .693.097 1.327.29 1.9.193.573.47 1.07.83 1.49.36.42.783.743 1.27.97.487.227 1.023.34 1.61.34.76 0 1.43-.19 2.01-.57.58-.38 1.043-.937 1.39-1.67l2.88.72a5.855 5.855 0 0 1-1.33 2.26 6.222 6.222 0 0 1-2.17 1.48c-.84.347-1.767.52-2.78.52zm6.64-.4l5.64-14.2h3.16L80.02 32h-3.06l-1.16-3.12h-6.14L68.5 32h-2.94zm5.04-5.64h4.26l-2.14-5.66-2.12 5.66zM81.44 32V17.8H86c1.16 0 2.163.183 3.01.55.847.367 1.497.893 1.95 1.58.453.687.68 1.497.68 2.43 0 .547-.1 1.07-.3 1.57-.2.5-.48.953-.84 1.36-.36.407-.793.743-1.3 1.01l3.22 5.7h-3.28l-2.54-4.92c-.253.013-.527.02-.82.02-.427 0-.893-.04-1.4-.12V32h-2.94zm2.94-11.68v4.18a9.833 9.833 0 0 0 1.56.12c.853 0 1.513-.19 1.98-.57.467-.38.7-.91.7-1.59s-.233-1.207-.7-1.58c-.467-.373-1.127-.56-1.98-.56h-1.56zM93.86 32V17.8h8.9v2.54h-6.02v3.1h5.38v2.54h-5.38v3.48h6.22V32h-9.1zm11.28 0V17.8h8.9v2.54h-6.02v3.1h5.38v2.54h-5.38v3.48h6.22V32h-9.1zm11.28 0V17.8h4.56c1.16 0 2.163.183 3.01.55.847.367 1.497.893 1.95 1.58.453.687.68 1.497.68 2.43 0 .547-.1 1.07-.3 1.57-.2.5-.48.953-.84 1.36-.36.407-.793.743-1.3 1.01l3.22 5.7h-3.28l-2.54-4.92c-.253.013-.527.02-.82.02-.427 0-.893-.04-1.4-.12V32h-2.94zm2.94-11.68v4.18a9.833 9.833 0 0 0 1.56.12c.853 0 1.513-.19 1.98-.57.467-.38.7-.91.7-1.59s-.233-1.207-.7-1.58c-.467-.373-1.127-.56-1.98-.56h-1.56zM132.82 32V17.8h4.56c1.16 0 2.163.183 3.01.55.847.367 1.497.893 1.95 1.58.453.687.68 1.497.68 2.43 0 .547-.1 1.07-.3 1.57-.2.5-.48.953-.84 1.36-.36.407-.793.743-1.3 1.01l3.22 5.7h-3.28l-2.54-4.92c-.253.013-.527.02-.82.02-.427 0-.893-.04-1.4-.12V32h-2.94zm2.94-11.68v4.18a9.833 9.833 0 0 0 1.56.12c.853 0 1.513-.19 1.98-.57.467-.38.7-.91.7-1.59s-.233-1.207-.7-1.58c-.467-.373-1.127-.56-1.98-.56h-1.56zm16.16 12.08c-.84 0-1.633-.12-2.38-.36a7.02 7.02 0 0 1-2.03-1.03 6.837 6.837 0 0 1-1.56-1.6 7.563 7.563 0 0 1-1.01-2.07 7.99 7.99 0 0 1-.36-2.42c0-.853.12-1.663.36-2.43.24-.767.58-1.46 1.02-2.08.44-.62.963-1.153 1.57-1.6a7.215 7.215 0 0 1 2.03-1.04 7.604 7.604 0 0 1 2.4-.37c.84 0 1.633.12 2.38.36a7.02 7.02 0 0 1 2.03 1.03c.607.447 1.127.98 1.56 1.6.433.62.77 1.31 1.01 2.07.24.76.36 1.567.36 2.42s-.12 1.663-.36 2.43c-.24.767-.58 1.46-1.02 2.08a7.014 7.014 0 0 1-1.57 1.6 7.215 7.215 0 0 1-2.03 1.04 7.604 7.604 0 0 1-2.4.37zm.02-2.74c.613 0 1.183-.117 1.71-.35.527-.233.98-.563 1.36-.99.38-.427.677-.93.89-1.51.213-.58.32-1.217.32-1.91 0-.693-.107-1.33-.32-1.91a4.664 4.664 0 0 0-.89-1.51 3.933 3.933 0 0 0-1.36-.99 4.174 4.174 0 0 0-1.71-.35c-.613 0-1.183.117-1.71.35-.527.233-.98.563-1.36.99-.38.427-.677.93-.89 1.51a5.494 5.494 0 0 0-.32 1.91c0 .693.107 1.33.32 1.91.213.58.51 1.083.89 1.51.38.427.833.757 1.36.99.527.233 1.097.35 1.71.35zm16.08 2.74c-.813 0-1.58-.12-2.3-.36a6.854 6.854 0 0 1-1.96-1.02 6.756 6.756 0 0 1-1.51-1.57 7.202 7.202 0 0 1-.97-2.04 8.323 8.323 0 0 1-.34-2.41c0-.853.117-1.663.35-2.43a7.796 7.796 0 0 1 .99-2.1 7.13 7.13 0 0 1 1.52-1.64 6.67 6.67 0 0 1 1.95-1.06 6.897 6.897 0 0 1 2.27-.37c.733 0 1.427.1 2.08.3a6.166 6.166 0 0 1 3.17 2.2c.393.52.69 1.107.89 1.76l-2.88.72c-.32-.707-.767-1.257-1.34-1.65a3.382 3.382 0 0 0-1.96-.59c-.56 0-1.083.12-1.57.36-.487.24-.907.577-1.26 1.01-.353.433-.63.943-.83 1.53-.2.587-.3 1.227-.3 1.92 0 .693.097 1.327.29 1.9.193.573.47 1.07.83 1.49.36.42.783.743 1.27.97.487.227 1.023.34 1.61.34.76 0 1.43-.19 2.01-.57.58-.38 1.043-.937 1.39-1.67l2.88.72a5.855 5.855 0 0 1-1.33 2.26 6.222 6.222 0 0 1-2.17 1.48c-.84.347-1.767.52-2.78.52zm8-.4V17.8H179v6.3l5.26-6.3h3.48l-5.68 6.62 6.4 7.58h-3.86l-5.6-6.88V32h-2.98zm13.72 0V17.8h8.9v2.54h-6.02v3.1H198v2.54h-5.38v3.48h6.22V32h-9.1zm14.46 0V20.44h-4V17.8h10.98v2.64h-4V32h-2.98z"/>
    </g>
</svg>
