<svg xmlns="http://www.w3.org/2000/svg" width="196" height="196" viewBox="0 0 196 196">
    <g fill="none" fill-rule="evenodd">
        <path d="M0 196h196V0H0z"/>
        <path stroke="#898B8D" stroke-width=".5" d="M98 171v3M140.908 157.059l1.764 2.427M167.428 120.559l2.852.927M167.428 75.441l2.852-.927M140.908 38.941l1.764-2.427M98 25v-3M55.092 38.941l-1.764-2.427M28.573 75.441l-2.854-.927M28.573 120.559l-2.854.927M55.092 157.059l-1.764 2.427"/>
        <g fill="#898B8D">
            <path d="M98.521 15.292c0-2.108-.53-2.878-1.279-2.878-.75 0-1.28.77-1.28 2.878 0 2.129.53 2.929 1.28 2.929s1.28-.8 1.28-2.929m-3.659 0c0-2.549.93-3.788 2.38-3.788 1.437 0 2.377 1.25 2.377 3.788 0 2.559-.94 3.838-2.378 3.838-1.45 0-2.379-1.279-2.379-3.838M106.64 17.241c0-.912-.295-1.312-.703-1.312-.416 0-.71.4-.71 1.312 0 .903.294 1.327.71 1.327.408 0 .703-.424.703-1.327zm-2.086 0c0-1.184.56-1.855 1.383-1.855.815 0 1.375.671 1.375 1.855 0 1.183-.56 1.862-1.375 1.862-.824 0-1.383-.679-1.383-1.862zm.607-4.238h.584l-3.23 6.1h-.576l3.222-6.1zm-2.695 1.855c0-.91-.295-1.31-.71-1.31-.409 0-.704.4-.704 1.31 0 .904.295 1.327.703 1.327.416 0 .711-.423.711-1.327zm-2.086 0c0-1.183.551-1.855 1.375-1.855s1.383.672 1.383 1.855c0 1.184-.559 1.871-1.383 1.871s-1.375-.687-1.375-1.87zM44.197 28.59c-.11-1.45-.66-2.11-1.46-2.11-.63 0-1.13.57-1.13 1.53 0 .939.42 1.479 1.19 1.479.45 0 .96-.26 1.4-.9zm-2.919 3.138c.29.33.74.55 1.21.55.89 0 1.658-.72 1.73-2.82-.43.53-1.06.86-1.62.86-1.23 0-2.059-.77-2.059-2.308 0-1.46 1-2.42 2.188-2.42 1.41 0 2.548 1.14 2.548 3.569 0 2.899-1.318 4.058-2.738 4.058-.85 0-1.449-.34-1.879-.78l.62-.71zM49.936 29.379c0-2.108-.53-2.878-1.279-2.878-.75 0-1.28.77-1.28 2.878 0 2.129.53 2.929 1.28 2.929s1.28-.8 1.28-2.93m-3.659 0c0-2.548.93-3.787 2.38-3.787 1.437 0 2.377 1.25 2.377 3.788 0 2.559-.94 3.838-2.378 3.838-1.45 0-2.379-1.28-2.379-3.838M58.056 31.328c0-.912-.295-1.312-.703-1.312-.416 0-.71.4-.71 1.312 0 .903.294 1.327.71 1.327.408 0 .703-.424.703-1.327zm-2.086 0c0-1.184.56-1.855 1.383-1.855.815 0 1.375.671 1.375 1.855 0 1.183-.56 1.862-1.375 1.862-.823 0-1.383-.679-1.383-1.862zm.607-4.238h.584l-3.23 6.1h-.576l3.222-6.1zm-2.695 1.855c0-.91-.295-1.31-.71-1.31-.409 0-.704.4-.704 1.31 0 .904.295 1.327.703 1.327.416 0 .711-.423.711-1.327zm-2.086 0c0-1.183.551-1.855 1.375-1.855s1.383.672 1.383 1.855c0 1.184-.559 1.871-1.383 1.871s-1.375-.687-1.375-1.87zM8.408 68.13c0-.68-.409-1.19-1.129-1.19-.6 0-1.049.41-1.049 1.07 0 .8.699 1.17 1.52 1.489.439-.408.658-.88.658-1.37m.15 3.63c0-.9-.808-1.24-1.808-1.65-.51.35-.86.9-.86 1.54 0 .729.61 1.239 1.399 1.239.75 0 1.269-.44 1.269-1.13m-3.687 0c0-.97.64-1.618 1.318-1.978v-.05c-.549-.391-.988-.94-.988-1.72 0-1.15.889-1.898 2.098-1.898 1.279 0 2.08.799 2.08 1.948 0 .75-.51 1.39-.971 1.73v.049c.66.38 1.24.949 1.24 1.949 0 1.09-.959 1.93-2.379 1.93-1.379 0-2.398-.82-2.398-1.96M14.238 69.88c0-2.11-.529-2.88-1.279-2.88-.75 0-1.28.77-1.28 2.88 0 2.129.53 2.928 1.28 2.928s1.28-.8 1.28-2.928m-3.659 0c0-2.55.93-3.79 2.38-3.79 1.438 0 2.378 1.25 2.378 3.79 0 2.559-.94 3.838-2.379 3.838-1.45 0-2.379-1.28-2.379-3.838M22.36 71.83c0-.913-.297-1.313-.704-1.313-.416 0-.712.4-.712 1.312 0 .902.296 1.326.712 1.326.407 0 .703-.424.703-1.326zm-2.088 0c0-1.185.56-1.856 1.384-1.856.814 0 1.375.671 1.375 1.855 0 1.182-.56 1.861-1.375 1.861-.824 0-1.384-.679-1.384-1.86zm.608-4.239h.583l-3.229 6.1h-.576l3.222-6.1zm-2.695 1.855c0-.912-.295-1.312-.71-1.312-.409 0-.705.4-.705 1.312 0 .903.296 1.326.704 1.326.416 0 .711-.423.711-1.326zm-2.086 0c0-1.183.551-1.855 1.375-1.855.823 0 1.383.672 1.383 1.855 0 1.184-.56 1.871-1.383 1.871-.824 0-1.375-.687-1.375-1.87zM8.36 121.026H4.9v-.969h4.738v.7c-1.729 2.16-2 3.777-2.119 6.656H6.34c.131-2.689.6-4.408 2.02-6.387M14.238 123.705c0-2.108-.529-2.878-1.279-2.878-.75 0-1.28.77-1.28 2.878 0 2.13.53 2.93 1.28 2.93s1.28-.8 1.28-2.93m-3.659 0c0-2.549.93-3.788 2.38-3.788 1.438 0 2.378 1.25 2.378 3.788 0 2.56-.94 3.838-2.379 3.838-1.45 0-2.379-1.279-2.379-3.838M22.36 125.654c0-.912-.297-1.312-.704-1.312-.416 0-.712.4-.712 1.312 0 .903.296 1.327.712 1.327.407 0 .703-.424.703-1.327zm-2.088 0c0-1.184.56-1.855 1.384-1.855.814 0 1.375.671 1.375 1.855 0 1.183-.56 1.862-1.375 1.862-.824 0-1.384-.679-1.384-1.862zm.608-4.238h.583l-3.229 6.1h-.576l3.222-6.1zm-2.695 1.855c0-.91-.295-1.31-.71-1.31-.409 0-.705.4-.705 1.31 0 .904.296 1.327.704 1.327.416 0 .711-.423.711-1.327zm-2.086 0c0-1.183.551-1.855 1.375-1.855.823 0 1.383.672 1.383 1.855 0 1.184-.56 1.871-1.383 1.871-.824 0-1.375-.687-1.375-1.87zM43.306 167.635c0-.95-.42-1.48-1.209-1.48-.43 0-.93.23-1.369.86.12 1.459.648 2.148 1.438 2.148.64 0 1.14-.58 1.14-1.528zm.32-3.73c-.27-.318-.72-.548-1.15-.548-.94 0-1.719.71-1.769 2.808.43-.53 1.07-.85 1.6-.85 1.24 0 2.068.76 2.068 2.32 0 1.459-.999 2.408-2.198 2.408-1.4 0-2.539-1.17-2.539-3.668 0-2.828 1.33-3.958 2.778-3.958.82 0 1.42.35 1.84.79l-.63.699zM48.936 166.205c0-2.108-.53-2.878-1.279-2.878-.75 0-1.28.77-1.28 2.878 0 2.13.53 2.93 1.28 2.93s1.28-.8 1.28-2.93m-3.659 0c0-2.549.93-3.788 2.38-3.788 1.437 0 2.377 1.25 2.377 3.788 0 2.56-.94 3.838-2.378 3.838-1.45 0-2.379-1.279-2.379-3.838M57.056 168.154c0-.912-.295-1.312-.703-1.312-.416 0-.71.4-.71 1.312 0 .903.294 1.327.71 1.327.408 0 .703-.424.703-1.327zm-2.086 0c0-1.184.56-1.855 1.383-1.855.815 0 1.375.671 1.375 1.855 0 1.183-.56 1.862-1.375 1.862-.823 0-1.383-.679-1.383-1.862zm.607-4.238h.584l-3.23 6.1h-.576l3.222-6.1zm-2.695 1.855c0-.91-.295-1.31-.71-1.31-.409 0-.704.4-.704 1.31 0 .904.295 1.327.703 1.327.416 0 .711-.423.711-1.327zm-2.086 0c0-1.183.551-1.855 1.375-1.855s1.383.672 1.383 1.855c0 1.184-.559 1.871-1.383 1.871s-1.375-.687-1.375-1.87zM91.813 183.151l.55-.75c.42.42.95.79 1.72.79.83 0 1.458-.59 1.458-1.569 0-.98-.56-1.539-1.399-1.539-.47 0-.75.14-1.18.42l-.56-.37.221-3.488h3.727v.97h-2.728l-.169 1.89a2.054 2.054 0 0 1 1.008-.262c1.23 0 2.24.73 2.24 2.34 0 1.628-1.19 2.547-2.479 2.547-1.16 0-1.889-.469-2.409-.979M101.37 180.293c0-2.108-.528-2.878-1.278-2.878s-1.28.77-1.28 2.878c0 2.129.53 2.929 1.28 2.929s1.279-.8 1.279-2.929m-3.658 0c0-2.549.929-3.788 2.379-3.788 1.439 0 2.379 1.25 2.379 3.788 0 2.559-.94 3.838-2.38 3.838-1.45 0-2.378-1.279-2.378-3.838M109.492 182.242c0-.912-.297-1.312-.704-1.312-.415 0-.712.4-.712 1.312 0 .903.297 1.327.712 1.327.407 0 .704-.424.704-1.327zm-2.088 0c0-1.184.561-1.855 1.384-1.855.815 0 1.376.671 1.376 1.855 0 1.183-.561 1.862-1.376 1.862-.823 0-1.384-.679-1.384-1.862zm.609-4.238h.583l-3.23 6.1h-.575l3.222-6.1zm-2.695 1.855c0-.91-.296-1.31-.712-1.31-.407 0-.704.4-.704 1.31 0 .904.297 1.327.704 1.327.416 0 .712-.423.712-1.327zm-2.087 0c0-1.183.552-1.855 1.375-1.855.824 0 1.384.672 1.384 1.855 0 1.184-.56 1.871-1.384 1.871-.823 0-1.375-.687-1.375-1.87zM146.357 167.045v-1.93c0-.4.041-1.018.061-1.42h-.04c-.18.37-.38.75-.589 1.13l-1.45 2.22h2.018zm2.02.89h-.94v1.978h-1.08v-1.978h-3.178v-.77l2.93-4.607h1.328v4.487h.94v.89zM152.807 166.205c0-2.108-.53-2.878-1.279-2.878-.75 0-1.28.77-1.28 2.878 0 2.13.53 2.93 1.28 2.93s1.28-.8 1.28-2.93m-3.659 0c0-2.549.93-3.788 2.38-3.788 1.437 0 2.377 1.25 2.377 3.788 0 2.56-.94 3.838-2.378 3.838-1.45 0-2.379-1.279-2.379-3.838M160.928 168.154c0-.912-.296-1.312-.703-1.312-.416 0-.712.4-.712 1.312 0 .903.296 1.327.712 1.327.407 0 .703-.424.703-1.327zm-2.087 0c0-1.184.56-1.855 1.383-1.855.816 0 1.376.671 1.376 1.855 0 1.183-.56 1.862-1.375 1.862-.823 0-1.383-.679-1.383-1.862zm.607-4.238h.584l-3.23 6.1h-.576l3.222-6.1zm-2.695 1.855c0-.91-.294-1.31-.71-1.31-.409 0-.704.4-.704 1.31 0 .904.296 1.327.703 1.327.416 0 .712-.423.712-1.327zm-2.085 0c0-1.183.55-1.855 1.374-1.855.825 0 1.383.672 1.383 1.855 0 1.184-.559 1.871-1.383 1.871-.823 0-1.375-.687-1.375-1.87zM173.959 126.533l.559-.739c.43.44.98.81 1.74.81.829 0 1.398-.46 1.398-1.22 0-.82-.52-1.349-2.178-1.349v-.85c1.449 0 1.928-.549 1.928-1.289 0-.65-.43-1.059-1.13-1.069-.57.01-1.047.29-1.467.7l-.6-.72c.579-.52 1.259-.89 2.108-.89 1.32 0 2.249.68 2.249 1.9 0 .85-.49 1.438-1.27 1.728v.05c.85.21 1.52.85 1.52 1.84 0 1.328-1.11 2.108-2.46 2.108-1.16 0-1.908-.46-2.397-1.01M183.506 123.705c0-2.108-.53-2.878-1.28-2.878s-1.28.77-1.28 2.878c0 2.13.53 2.93 1.28 2.93s1.28-.8 1.28-2.93m-3.658 0c0-2.549.929-3.788 2.379-3.788 1.439 0 2.379 1.25 2.379 3.788 0 2.56-.94 3.838-2.38 3.838-1.45 0-2.378-1.279-2.378-3.838M191.627 125.654c0-.912-.296-1.312-.703-1.312-.416 0-.712.4-.712 1.312 0 .903.296 1.327.712 1.327.407 0 .703-.424.703-1.327zm-2.087 0c0-1.184.56-1.855 1.384-1.855.814 0 1.375.671 1.375 1.855 0 1.183-.561 1.862-1.375 1.862-.824 0-1.384-.679-1.384-1.862zm.608-4.238h.583l-3.23 6.1h-.575l3.222-6.1zm-2.695 1.855c0-.91-.295-1.31-.711-1.31-.408 0-.704.4-.704 1.31 0 .904.296 1.327.704 1.327.416 0 .71-.423.71-1.327zm-2.086 0c0-1.183.55-1.855 1.375-1.855.823 0 1.383.672 1.383 1.855 0 1.184-.56 1.871-1.383 1.871-.824 0-1.375-.687-1.375-1.87zM174.117 75.917c2.169-1.919 3.289-3.348 3.289-4.558 0-.798-.43-1.348-1.25-1.348-.58 0-1.059.369-1.449.819l-.65-.64c.63-.679 1.28-1.099 2.24-1.099 1.348 0 2.218.88 2.218 2.209 0 1.419-1.129 2.888-2.689 4.378.381-.04.84-.071 1.199-.071h1.84v.98h-4.748v-.67zM183.506 72.879c0-2.108-.53-2.878-1.28-2.878s-1.28.77-1.28 2.878c0 2.129.53 2.929 1.28 2.929s1.28-.8 1.28-2.93m-3.658 0c0-2.548.929-3.787 2.379-3.787 1.438 0 2.378 1.25 2.378 3.788 0 2.559-.94 3.838-2.378 3.838-1.45 0-2.38-1.28-2.38-3.838M191.626 74.828c0-.912-.296-1.312-.704-1.312-.415 0-.711.4-.711 1.312 0 .903.296 1.327.71 1.327.409 0 .705-.424.705-1.327zm-2.087 0c0-1.184.56-1.855 1.383-1.855.816 0 1.376.671 1.376 1.855 0 1.183-.56 1.862-1.376 1.862-.822 0-1.383-.679-1.383-1.862zm.608-4.238h.583l-3.23 6.1h-.575l3.222-6.1zm-2.695 1.855c0-.91-.296-1.31-.712-1.31-.407 0-.703.4-.703 1.31 0 .904.296 1.327.703 1.327.416 0 .712-.423.712-1.327zm-2.087 0c0-1.183.552-1.855 1.375-1.855.824 0 1.384.672 1.384 1.855 0 1.184-.56 1.871-1.384 1.871-.823 0-1.375-.687-1.375-1.87zM139.84 32.138h1.609V27.02h-1.32v-.73c.69-.13 1.18-.3 1.6-.56h.87v6.407h1.438v.949h-4.197v-.95zM148.808 29.379c0-2.108-.53-2.878-1.279-2.878-.75 0-1.28.77-1.28 2.878 0 2.129.53 2.929 1.28 2.929s1.28-.8 1.28-2.93m-3.659 0c0-2.548.93-3.787 2.38-3.787 1.437 0 2.377 1.25 2.377 3.788 0 2.559-.94 3.838-2.378 3.838-1.45 0-2.379-1.28-2.379-3.838M156.929 31.328c0-.912-.297-1.312-.704-1.312-.415 0-.712.4-.712 1.312 0 .903.297 1.327.712 1.327.407 0 .704-.424.704-1.327zm-2.088 0c0-1.184.561-1.855 1.383-1.855.817 0 1.377.671 1.377 1.855 0 1.183-.56 1.862-1.376 1.862-.822 0-1.383-.679-1.383-1.862zm.608-4.238h.583l-3.23 6.1h-.575l3.222-6.1zm-2.695 1.855c0-.91-.296-1.31-.712-1.31-.406 0-.703.4-.703 1.31 0 .904.297 1.327.703 1.327.416 0 .713-.423.713-1.327zm-2.087 0c0-1.183.553-1.855 1.375-1.855.825 0 1.385.672 1.385 1.855 0 1.184-.56 1.871-1.385 1.871-.822 0-1.375-.687-1.375-1.87z"/>
        </g>
    </g>
</svg>
